<?xml version="1.0" encoding="UTF-8"?>
<svg id="Ebene_1" data-name="Ebene 1" xmlns="http://www.w3.org/2000/svg" viewBox="0 0 1201.89 2834.65">
  <path d="M1061.18,2833.11c-233.97,2.58-689.65,1.04-909.09,1.37-12.61-.64-26.56-6.13-39.5-10.68-63.42-22.68-103.21-79.43-111-145.03C-1.7,2589.25,1.26,247.83.51,163.61,3.38,86.19,64.23,15.3,142.38,3.54c220.8-8.1,833.37.63,908.09-2.18,65.21,7.78,125.52,53.41,142.8,118.22,15.87,71.17,4.28,98.04,7.62,278.34-.67,512.51,1.66,1729.89-1.06,2291.38-9.3,71.21-67.82,131.56-138.52,143.79l-.13.03ZM93.58,2695.56c9.89,23.18,33.03,42.98,57.11,48.21,207.61,3.27,614.83.37,806.67,1.27,46.05,0,78.34,0,89.56,0,7.05.35,14.69-3.24,21.5-6.23,22.8-10.22,38.88-30.59,44.17-55.58,1.11-4.7,3.11-15.23,2.87-18.82-1.22-74.46,2.33-2424.6-1.26-2506.12-3.64-17.66-11.14-36.52-25.54-48.58-13.16-11.04-29.88-17.05-45.58-19.19-248.05.12-651.48-.32-885.94,0-25.91,1.96-51.94,25.67-62.82,48.38-6.45,35.72-3.88,2063.45-.83,2556.44l.1.23Z" fill="#03045e"/>
  <g>
    <path d="M912.4,2432.09c-33.09,34.44-77.05,51.64-131.86,51.64h-354.95c-54.81,0-98.75-17.2-131.84-51.64-33.09-34.42-49.64-80.05-49.64-136.88s16.55-102.77,49.64-137.86,77.38-52.64,132.84-52.64h39.11c3.34,0,6.19,1.17,8.53,3.52s3.5,5.17,3.5,8.52v92.25c0,3.34-1.16,6.17-3.5,8.52s-5.19,3.52-8.53,3.52h-41.11c-24.06,0-43.44,6.86-58.16,20.56-14.7,13.7-22.06,31.58-22.06,53.62s7.36,39.78,22.06,53.16c14.72,13.38,34.09,20.05,58.16,20.05h356.95c24.08,0,43.47-6.67,58.17-20.05s22.05-31.09,22.05-53.16-7.34-39.92-22.05-53.62-34.09-20.56-58.17-20.56h-96.25c-3.34,0-5.02,1.67-5.02,5v61.17c0,3.34-1.16,6.19-3.5,8.53s-5.19,3.5-8.53,3.5h-73.2c-3.34,0-6.17-1.16-8.52-3.5s-3.52-5.19-3.52-8.53v-170.45c0-3.34,1.17-6.17,3.52-8.52s5.17-3.52,8.52-3.52h185.5c54.81,0,98.77,17.55,131.86,52.64s49.62,81.05,49.62,137.86-16.53,102.45-49.62,136.88Z" fill="#03045e"/>
    <path d="M942.98,1744.75l-105.28,19.05c-3.34,0-5.02,2.02-5.02,6.02v146.39c0,4.02,1.67,6.02,5.02,6.02l105.28,19.06c7.36.67,11.03,5.02,11.03,13.03v91.25c0,9.36-4.34,13.03-13.03,11.03l-677.83-148.41c-7.34-1.33-11.03-5.67-11.03-13.03v-106.28c0-7.34,3.69-11.7,11.03-13.05l677.83-148.39h4c6.03,0,9.03,3.69,9.03,11.03v93.25c0,8.03-3.67,12.38-11.03,13.03ZM741.43,1899.17v-111.31c0-4-1.66-5.67-5-5l-316.86,58.16c-2,.67-3,1.67-3,3s1,2.34,3,3.02l316.86,57.14c3.34.69,5-.98,5-5Z" fill="#03045e"/>
    <path d="M255.64,1249.93c2.34-2.34,5.19-3.52,8.52-3.52h76.2c3.34,0,6.19,1.17,8.53,3.52s3.52,5.17,3.52,8.52v127.34c0,3.34,1.67,5.02,5,5.02h584.58c3.34,0,6.19,1.17,8.53,3.52s3.5,5.17,3.5,8.52v92.23c0,3.34-1.16,6.19-3.5,8.53s-5.19,3.52-8.53,3.52H357.4c-3.33,0-5,1.67-5,5v120.33c0,3.34-1.17,6.19-3.52,8.53s-5.19,3.5-8.53,3.5h-76.2c-3.33,0-6.17-1.16-8.52-3.5s-3.52-5.19-3.52-8.53v-374c0-3.34,1.17-6.17,3.52-8.52Z" fill="#03045e"/>
    <path d="M348.89,818.78c2.34,2.34,3.52,5.17,3.52,8.52v216.58c0,3.34,1.67,5.02,5,5.02h189.52c3.34,0,5.02-1.67,5.02-5.02v-128.34c0-3.34,1.17-6.17,3.52-8.52s5.17-3.52,8.52-3.52h77.2c3.34,0,6.19,1.17,8.53,3.52s3.5,5.17,3.5,8.52v128.34c0,3.34,1.67,5.02,5.02,5.02h190.52c3.34,0,5.02-1.67,5.02-5.02v-216.58c0-3.34,1.17-6.17,3.52-8.52s5.17-3.52,8.52-3.52h76.2c3.34,0,6.19,1.17,8.53,3.52s3.5,5.17,3.5,8.52v325.88c0,3.34-1.16,6.17-3.5,8.52s-5.19,3.52-8.53,3.52H264.15c-3.33,0-6.17-1.17-8.52-3.52s-3.52-5.17-3.52-8.52v-325.88c0-3.34,1.17-6.17,3.52-8.52s5.19-3.52,8.52-3.52h76.2c3.34,0,6.19,1.17,8.53,3.52Z" fill="#03045e"/>
    <path d="M950.51,725.51c-2.34,2.34-5.19,3.52-8.53,3.52H264.15c-3.33,0-6.17-1.17-8.52-3.52s-3.52-5.17-3.52-8.52v-171.47c0-57.48,17.39-103.44,52.14-137.86,34.77-34.42,81.22-51.64,139.38-51.64h318.86c58.16,0,104.62,17.22,139.38,51.64,34.77,34.42,52.14,80.38,52.14,137.86v171.47c0,3.34-1.16,6.17-3.5,8.52ZM853.75,607.7l-1-60.17c0-22.05-8.86-39.92-26.58-53.62s-41.28-20.89-70.69-21.56h-304.83c-30.06,0-53.95,6.86-71.67,20.56s-26.58,32.25-26.58,55.64v59.16c0,3.34,1.67,5.02,5,5.02h491.33c3.34,0,5.02-1.67,5.02-5.02Z" fill="#03045e"/>
  </g>
</svg>