<?xml version="1.0" encoding="UTF-8"?>
<svg id="Ebene_1" data-name="Ebene 1" xmlns="http://www.w3.org/2000/svg" viewBox="0 0 3401.57 3401.57">
  <path d="M568.44,2716.42c-2.06-186.67-.83-550.24-1.1-725.32.51-10.06,4.89-21.19,8.52-31.52,18.09-50.6,63.37-82.35,115.71-88.56,71.42-2.62,1939.53-.26,2006.73-.86,61.77,2.29,118.33,50.84,127.71,113.19,6.46,176.17-.5,664.9,1.74,724.52-6.21,52.03-42.61,100.15-94.32,113.93-56.79,12.66-78.22,3.42-222.08,6.08-408.9-.53-1380.2,1.33-1828.18-.85-56.81-7.42-104.97-54.11-114.72-110.52l-.02-.11ZM678.19,1944.42c-18.5,7.89-34.29,26.35-38.47,45.56-2.61,165.64-.3,490.54-1.01,643.6,0,36.74,0,62.5,0,71.45-.28,5.62,2.59,11.72,4.97,17.15,8.15,18.19,24.41,31.02,44.35,35.24,3.75.88,12.15,2.48,15.01,2.29,59.41-.97,1934.47,1.86,1999.51-1,14.09-2.91,29.14-8.89,38.76-20.38,8.81-10.5,13.6-23.84,15.31-36.37-.09-197.91.25-519.79,0-706.85-1.56-20.67-20.48-41.44-38.6-50.12-28.5-5.15-1646.33-3.1-2039.66-.66l-.18.08Z" fill="#03045e"/>
  <path d="M2120.61,567.55c67.5,4.18,126.62,40.76,185.78,70.19,69.1,36.24,162.11,80.49,207.85,128.35,26.61,31.48,34.35,76.92,25.04,116.57-7.28,31.43-22.53,89.25-34,123.98-3.05,9.1-5.04,15.65-9.89,21.99-7.75,9.8-20.28,17.02-32.41,19.43-14.89,2.55-14.24-5.8-14.23-16.68-.86-39.91.99-122.18-.36-161.62-.35-6.25-1.9-15.33-3.79-22.4-22.01-75.99-115.99-122.63-191.52-134.42-18.27-2.57-35.87-2.32-54.51-2.01-90.25,2.12-196.41,12.66-285.9,23.68-8.13,1.17-16.73,2.63-24.92,4.37-130.74,27.4-196.48,134-285.76,218.48-76.74,75.51-132.37,73.52-233.22,63.67-140-9.51-283.78-6.53-423.5-18.93-57.18-4.57-76.28-18.51-67.18-79.61,4.32-27.02,12-60.82,19.14-89.21,5.27-21.25,11.17-42.14,20.25-62.37,25.56-58,71.79-93.09,135.89-102.51,154.38-22.66,315.69-27.63,469.38-43.85,185.93-19.11,379.54-49.79,562.21-57.46,11.67-.38,23.54-.48,35.45.32h.2Z" fill="#03045e"/>
  <path d="M1418.33,1642.21c13.49-10.13,13.52-30.73,13.61-47.32-.45-9.77,1.23-21.24-4.06-29.58-5.76-7.58-19.79-8.97-29.67-12.19-10.11-2.78-19.61-5.64-28.84-9.76-33.38-15.18-60.33-45.28-69.71-80.95-5.38-18.08-5.72-40.53-10.98-57.93-2.64-7.94-7.5-9.3-16.57-12.65-74.23-29.87-183.71-64.8-237.05-91.91-70.02-38.54-69.24-112.47-66.28-186.39.87-15.04-4.51-34.83-.01-48.5,6.45-11.43,111.95,4.99,134.4,3.4,124.45-.85,246.64,19.08,370.86,15.07,67.62-4.26,125.95-39.22,173.55-85,87.02-85.58,165.04-196.8,299.38-205.52,77.97-10.12,170.6-16.82,250.09-19.7,55.82-2.05,120.67,3.41,159,47.89,17.98,20.73,29.7,49.68,30.33,77.67-.95,56.14-1.59,112.24.51,169.57,2.25,80.97,6.03,162.25,3.23,242.85-1.23,37.57-3.14,78-18.7,112.71-64.12,151.81-250.58,114.64-385.01,115.69-69.48-3.58-137.58-.07-206.93-2.44-175.94-18.15-145.42-216.35-144.09-362.72-1.74-23.54,4.28-58.13-21.5-69.74-15.93-6.25-34.06,4.96-36.98,21.57,3.74,101.93-23.28,256.31,18.06,345.55,8.45,19.92,28.76,32.75,38.72,51.66,15.48,36.59-16.61,78.74-55.94,75.29-17.86-1.04-29.51-3.26-29.39,19.45-.43,14.37.44,28.53-1.66,42.32-7.78,45.02-45.62,92.17-90.31,101.21-42.59,3.81-124.59.03-167.48,1.43-5.27.17-8.04,1.05-9.34,5.33-3.88,11.51,2.38,40.73-4.66,48.86-46.46,2.6-223.83.32-263.11.75-4.79-.35-3.15-5.37-3.55-8.9,1.29-43.27-2.04-213.49,1-258.92,6.84-16.43,26.59-33.54,45.35-33.67,36.13-.14,130.12-.21,166.82-.14,6.94-.05,12.59,1.94,18.19,7.05,48.04,47.9,36.45,54.19,39.25,114.16.37,8.01,7.46,8.74,13.94,8.51,12.03.04,33.21,0,54.44.02,15.84-.04,29.97.03,43.36,0,11.43-.33,20.16,1.17,27.65-4.04l.1-.07ZM2271.55,1162.06c.59-140.83-109.28-260.34-248.98-272.15-155.46-15.19-296.11,109.19-298.03,266.62-3.41,109.12,64.31,214.06,164.69,256.54,178.88,78,382.86-54.47,382.32-250.79v-.21Z" fill="#03045e"/>
  <path d="M2202.33,1162.32c.44,146.6-152.01,245.74-285.81,187.29-75.85-32.12-126.56-112.06-122.8-194.47,2.92-116.33,107.69-207.66,222.51-196.34,104.39,8.71,186.6,98.2,186.09,203.31v.21ZM2091.89,1162.53c.42-48.33-38.14-90.44-86.58-93.92-51.15-5-98.9,35.52-101.96,86.81-3.46,39.22,19.99,78.33,56.23,93.69,61.75,27.21,132.63-18.6,132.31-86.38v-.21Z" fill="#03045e"/>
  <g>
    <path d="M888.4,2597.72c-27.47-26.4-41.2-61.46-41.2-105.2v-283.2c0-43.73,13.73-78.8,41.2-105.2,27.46-26.4,63.86-39.6,109.2-39.6s82,13.2,110,39.6c28,26.4,42,61.74,42,106v31.2c0,2.67-.94,4.94-2.8,6.8s-4.14,2.8-6.8,2.8h-73.6c-2.67,0-4.94-.92-6.8-2.8-1.88-1.86-2.8-4.12-2.8-6.8v-32.8c0-19.2-5.48-34.66-16.4-46.4-10.94-11.73-25.2-17.6-42.8-17.6s-31.74,5.88-42.4,17.6c-10.68,11.74-16,27.2-16,46.4v284.8c0,19.2,5.32,34.67,16,46.4,10.66,11.74,24.8,17.6,42.4,17.6s31.86-5.86,42.8-17.6c10.93-11.72,16.4-27.2,16.4-46.4v-76.8c0-2.66-1.34-4-4-4h-48.8c-2.67,0-4.94-.92-6.8-2.8-1.88-1.86-2.8-4.12-2.8-6.8v-58.4c0-2.66.93-4.92,2.8-6.8s4.12-2.8,6.8-2.8h136c2.66,0,4.93.94,6.8,2.8,1.86,1.88,2.8,4.14,2.8,6.8v148c0,43.74-14,78.8-42,105.2-28,26.4-64.67,39.6-110,39.6s-81.74-13.2-109.2-39.6Z" fill="#03045e"/>
    <path d="M1436.79,2622.12l-15.2-84c0-2.66-1.6-4-4.8-4h-116.8c-3.2,0-4.8,1.34-4.8,4l-15.2,84c-.54,5.88-4,8.8-10.4,8.8h-72.8c-7.48,0-10.4-3.46-8.8-10.4l118.4-540.8c1.06-5.86,4.52-8.8,10.4-8.8h84.8c5.86,0,9.33,2.94,10.4,8.8l118.4,540.8v3.2c0,4.8-2.94,7.2-8.8,7.2h-74.4c-6.4,0-9.88-2.92-10.4-8.8ZM1313.59,2461.32h88.8c3.2,0,4.52-1.33,4-4l-46.4-252.8c-.54-1.6-1.34-2.4-2.4-2.4s-1.88.8-2.4,2.4l-45.6,252.8c-.54,2.67.8,4,4,4Z" fill="#03045e"/>
    <path d="M1831.6,2073.72c1.86,1.88,2.8,4.14,2.8,6.8v60.8c0,2.67-.94,4.94-2.8,6.8-1.88,1.88-4.14,2.8-6.8,2.8h-101.6c-2.68,0-4,1.34-4,4v466.4c0,2.67-.94,4.94-2.8,6.8-1.88,1.88-4.14,2.8-6.8,2.8h-73.6c-2.68,0-4.94-.92-6.8-2.8-1.88-1.86-2.8-4.12-2.8-6.8v-466.4c0-2.66-1.34-4-4-4h-96c-2.67,0-4.94-.92-6.8-2.8-1.88-1.86-2.8-4.12-2.8-6.8v-60.8c0-2.66.93-4.92,2.8-6.8s4.12-2.8,6.8-2.8h298.4c2.66,0,4.93.94,6.8,2.8Z" fill="#03045e"/>
    <path d="M2175.59,2148.12c-1.88,1.88-4.14,2.8-6.8,2.8h-172.8c-2.67,0-4,1.34-4,4v151.2c0,2.67,1.33,4,4,4h102.4c2.66,0,4.92.94,6.8,2.8,1.86,1.88,2.8,4.14,2.8,6.8v61.6c0,2.67-.94,4.94-2.8,6.8s-4.14,2.8-6.8,2.8h-102.4c-2.67,0-4,1.34-4,4v152c0,2.67,1.33,4,4,4h172.8c2.66,0,4.92.94,6.8,2.8,1.86,1.88,2.8,4.14,2.8,6.8v60.8c0,2.67-.94,4.94-2.8,6.8-1.88,1.88-4.14,2.8-6.8,2.8h-260c-2.67,0-4.94-.92-6.8-2.8-1.88-1.86-2.8-4.12-2.8-6.8v-540.8c0-2.66.92-4.92,2.8-6.8s4.12-2.8,6.8-2.8h260c2.66,0,4.92.94,6.8,2.8,1.86,1.88,2.8,4.14,2.8,6.8v60.8c0,2.67-.94,4.94-2.8,6.8Z" fill="#03045e"/>
    <path d="M2249.99,2628.12c-1.88-1.86-2.8-4.12-2.8-6.8v-540.8c0-2.66.92-4.92,2.8-6.8s4.12-2.8,6.8-2.8h136.8c45.86,0,82.53,13.88,110,41.6,27.46,27.74,41.2,64.8,41.2,111.2v254.4c0,46.4-13.74,83.47-41.2,111.2-27.47,27.74-64.14,41.6-110,41.6h-136.8c-2.67,0-4.94-.92-6.8-2.8ZM2343.99,2550.92l48-.8c17.6,0,31.86-7.06,42.8-21.2,10.92-14.12,16.66-32.92,17.2-56.4v-243.2c0-24-5.47-43.06-16.4-57.2-10.94-14.12-25.74-21.2-44.4-21.2h-47.2c-2.67,0-4,1.34-4,4v392c0,2.67,1.33,4,4,4Z" fill="#03045e"/>
  </g>
</svg>